<svg xmlns="http://www.w3.org/2000/svg" version="1.1" xmlns:xlink="http://www.w3.org/1999/xlink" xmlns:svgjs="http://svgjs.dev/svgjs" width="1500" height="1500" viewBox="0 0 1500 1500"><rect width="1500" height="1500" fill="#ffffff"></rect><g transform="matrix(0.6666666666666666,0,0,0.6666666666666666,249.39393939393938,435.99032258064517)"><svg viewBox="0 0 396 248" data-background-color="#ffffff" preserveAspectRatio="xMidYMid meet" height="939" width="1500" xmlns="http://www.w3.org/2000/svg" xmlns:xlink="http://www.w3.org/1999/xlink"><g id="tight-bounds" transform="matrix(1,0,0,1,0.2400000000000091,0.4000000000000057)"><svg viewBox="0 0 395.52 247.2" height="247.2" width="395.52"><g><svg></svg></g><g><svg viewBox="0 0 395.52 247.2" height="247.2" width="395.52"><g transform="matrix(1,0,0,1,75.54432,103.97821651376147)"><svg viewBox="0 0 244.43135999999998 39.24356697247706" height="39.24356697247706" width="244.43135999999998"><g><svg viewBox="0 0 244.43135999999998 39.24356697247706" height="39.24356697247706" width="244.43135999999998"><g><svg viewBox="0 0 244.43135999999998 39.24356697247706" height="39.24356697247706" width="244.43135999999998"><g id="textblocktransform"><svg viewBox="0 0 244.43135999999998 39.24356697247706" height="39.24356697247706" width="244.43135999999998" id="textblock"><g><svg viewBox="0 0 244.43135999999998 39.24356697247706" height="39.24356697247706" width="244.43135999999998"><g transform="matrix(1,0,0,1,0,0)"><svg width="244.43135999999998" viewBox="1.7999999999999998 -28 174.38 28" height="39.24356697247706" data-palette-color="#000000"><path d="M18-12Q18.2-11.2 18.2-10L18.2-10Q18.2-8.85 18-8L18-8Q18.2-7.2 18.2-6L18.2-6Q18.2-4.85 18-4L18-4 16-4Q16.2-3.2 16.2-2L16.2-2Q16.2-0.85 16 0L16 0 4 0Q3.8-0.85 3.8-2L3.8-2Q3.8-3.2 4-4L4-4 2-4Q1.8-4.85 1.8-6L1.8-6Q1.8-7.2 2-8L2-8 6-8Q6.2-7.2 6.2-6L6.2-6Q6.2-4.85 6-4L6-4 14-4Q13.8-4.85 13.8-6L13.8-6Q13.8-7.2 14-8L14-8Q13.8-8.85 13.8-10L13.8-10Q13.8-11.2 14-12L14-12 4-12Q3.8-12.85 3.8-14L3.8-14Q3.8-15.2 4-16L4-16 2-16Q1.8-16.85 1.8-18L1.8-18Q1.8-19.2 2-20L2-20Q1.8-20.85 1.8-22L1.8-22Q1.8-23.2 2-24L2-24 4-24Q3.8-24.85 3.8-26L3.8-26Q3.8-27.2 4-28L4-28 16-28Q16.2-27.2 16.2-26L16.2-26Q16.2-24.85 16-24L16-24 18-24Q18.2-23.2 18.2-22L18.2-22Q18.2-20.85 18-20L18-20 14-20Q13.8-20.85 13.8-22L13.8-22Q13.8-23.2 14-24L14-24 6-24Q6.2-23.2 6.2-22L6.2-22Q6.2-20.85 6-20L6-20Q6.2-19.2 6.2-18L6.2-18Q6.2-16.85 6-16L6-16 16-16Q16.2-15.2 16.2-14L16.2-14Q16.2-12.85 16-12L16-12 18-12ZM38-24Q38.2-23.2 38.2-22L38.2-22Q38.2-20.85 38-20L38-20Q38.2-19.2 38.2-18L38.2-18Q38.2-16.85 38-16L38-16Q38.2-15.2 38.2-14L38.2-14Q38.2-12.85 38-12L38-12Q38.2-11.2 38.2-10L38.2-10Q38.2-8.85 38-8L38-8Q38.2-7.2 38.2-6L38.2-6Q38.2-4.85 38-4L38-4Q38.2-3.2 38.2-2L38.2-2Q38.2-0.85 38 0L38 0 34 0Q33.8-0.85 33.8-2L33.8-2Q33.8-3.2 34-4L34-4Q33.8-4.85 33.8-6L33.8-6Q33.8-7.2 34-8L34-8Q33.8-8.85 33.8-10L33.8-10Q33.8-11.2 34-12L34-12Q33.8-12.85 33.8-14L33.8-14Q33.8-15.2 34-16L34-16Q33.8-16.85 33.8-18L33.8-18Q33.8-19.2 34-20L34-20 32.5-20Q32.7-19.2 32.7-18L32.7-18Q32.7-16.85 32.5-16L32.5-16Q32.7-15.2 32.7-14L32.7-14Q32.7-12.85 32.5-12L32.5-12 31.5-12Q31.7-11.2 31.7-10L31.7-10Q31.7-8.85 31.5-8L31.5-8Q31.7-7.2 31.7-6L31.7-6Q31.7-4.85 31.5-4L31.5-4 28.5-4Q28.3-4.85 28.3-6L28.3-6Q28.3-7.2 28.5-8L28.5-8Q28.3-8.85 28.3-10L28.3-10Q28.3-11.2 28.5-12L28.5-12 27.5-12Q27.3-12.85 27.3-14L27.3-14Q27.3-15.2 27.5-16L27.5-16Q27.3-16.85 27.3-18L27.3-18Q27.3-19.2 27.5-20L27.5-20 26-20Q26.2-19.2 26.2-18L26.2-18Q26.2-16.85 26-16L26-16Q26.2-15.2 26.2-14L26.2-14Q26.2-12.85 26-12L26-12Q26.2-11.2 26.2-10L26.2-10Q26.2-8.85 26-8L26-8Q26.2-7.2 26.2-6L26.2-6Q26.2-4.85 26-4L26-4Q26.2-3.2 26.2-2L26.2-2Q26.2-0.85 26 0L26 0 22 0Q21.8-0.85 21.8-2L21.8-2Q21.8-3.2 22-4L22-4Q21.8-4.85 21.8-6L21.8-6Q21.8-7.2 22-8L22-8Q21.8-8.85 21.8-10L21.8-10Q21.8-11.2 22-12L22-12Q21.8-12.85 21.8-14L21.8-14Q21.8-15.2 22-16L22-16Q21.8-16.85 21.8-18L21.8-18Q21.8-19.2 22-20L22-20Q21.8-20.85 21.8-22L21.8-22Q21.8-23.2 22-24L22-24Q21.8-24.85 21.8-26L21.8-26Q21.8-27.2 22-28L22-28 27-28Q27.2-27.2 27.2-26L27.2-26Q27.2-24.85 27-24L27-24 28.5-24Q28.7-23.2 28.7-22L28.7-22Q28.7-20.85 28.5-20L28.5-20 29.25-20Q29.45-19.2 29.45-18L29.45-18Q29.45-16.85 29.25-16L29.25-16 30.75-16Q30.55-16.85 30.55-18L30.55-18Q30.55-19.2 30.75-20L30.75-20 31.5-20Q31.3-20.85 31.3-22L31.3-22Q31.3-23.2 31.5-24L31.5-24 33-24Q32.8-24.85 32.8-26L32.8-26Q32.8-27.2 33-28L33-28 38-28Q38.2-27.2 38.2-26L38.2-26Q38.2-24.85 38-24L38-24ZM58.2-6Q58.2-4.85 58-4L58-4Q58.2-3.2 58.2-2L58.2-2Q58.2-0.85 58 0L58 0 54 0Q53.8-0.85 53.8-2L53.8-2Q53.8-3.2 54-4L54-4Q53.8-4.85 53.8-6L53.8-6Q53.8-7.2 54-8L54-8 46-8Q46.2-7.2 46.2-6L46.2-6Q46.2-4.85 46-4L46-4Q46.2-3.2 46.2-2L46.2-2Q46.2-0.85 46 0L46 0 42 0Q41.8-0.85 41.8-2L41.8-2Q41.8-3.2 42-4L42-4Q41.8-4.85 41.8-6L41.8-6Q41.8-7.2 42-8L42-8 43.5-8Q43.3-8.85 43.3-10L43.3-10Q43.3-11.2 43.5-12L43.5-12Q43.3-12.85 43.3-14L43.3-14Q43.3-15.2 43.5-16L43.5-16 44.5-16Q44.3-16.85 44.3-18L44.3-18Q44.3-19.2 44.5-20L44.5-20 46-20Q45.8-20.85 45.8-22L45.8-22Q45.8-23.2 46-24L46-24 47-24Q46.8-24.85 46.8-26L46.8-26Q46.8-27.2 47-28L47-28 53-28Q53.2-27.2 53.2-26L53.2-26Q53.2-24.85 53-24L53-24 54-24Q54.2-23.2 54.2-22L54.2-22Q54.2-20.85 54-20L54-20 55.5-20Q55.7-19.2 55.7-18L55.7-18Q55.7-16.85 55.5-16L55.5-16 56.5-16Q56.7-15.2 56.7-14L56.7-14Q56.7-12.85 56.5-12L56.5-12Q56.7-11.2 56.7-10L56.7-10Q56.7-8.85 56.5-8L56.5-8 58-8Q58.2-7.2 58.2-6L58.2-6ZM52.5-12Q52.3-12.85 52.3-14L52.3-14Q52.3-15.2 52.5-16L52.5-16 51.5-16Q51.3-16.85 51.3-18L51.3-18Q51.3-19.2 51.5-20L51.5-20 48.5-20Q48.7-19.2 48.7-18L48.7-18Q48.7-16.85 48.5-16L48.5-16 47.5-16Q47.7-15.2 47.7-14L47.7-14Q47.7-12.85 47.5-12L47.5-12 52.5-12ZM76.49-4L77.99-4Q78.19-3.2 78.19-2L78.19-2Q78.19-0.85 77.99 0L77.99 0 73.99 0Q73.79-0.85 73.79-2L73.79-2Q73.79-3.2 73.99-4L73.99-4 72.49-4Q72.29-4.85 72.29-6L72.29-6Q72.29-7.2 72.49-8L72.49-8 70.99-8Q70.79-8.85 70.79-10L70.79-10Q70.79-11.2 70.99-12L70.99-12 65.99-12Q66.19-11.2 66.19-10L66.19-10Q66.19-8.85 65.99-8L65.99-8Q66.19-7.2 66.19-6L66.19-6Q66.19-4.85 65.99-4L65.99-4Q66.19-3.2 66.19-2L66.19-2Q66.19-0.85 65.99 0L65.99 0 61.99 0Q61.79-0.85 61.79-2L61.79-2Q61.79-3.2 61.99-4L61.99-4Q61.79-4.85 61.79-6L61.79-6Q61.79-7.2 61.99-8L61.99-8Q61.79-8.85 61.79-10L61.79-10Q61.79-11.2 61.99-12L61.99-12Q61.79-12.85 61.79-14L61.79-14Q61.79-15.2 61.99-16L61.99-16Q61.79-16.85 61.79-18L61.79-18Q61.79-19.2 61.99-20L61.99-20Q61.79-20.85 61.79-22L61.79-22Q61.79-23.2 61.99-24L61.99-24Q61.79-24.85 61.79-26L61.79-26Q61.79-27.2 61.99-28L61.99-28 75.99-28Q76.19-27.2 76.19-26L76.19-26Q76.19-24.85 75.99-24L75.99-24 77.99-24Q78.19-23.2 78.19-22L78.19-22Q78.19-20.85 77.99-20L77.99-20 76.99-20Q77.19-19.2 77.19-18L77.19-18Q77.19-16.85 76.99-16L76.99-16 73.99-16Q74.19-15.2 74.19-14L74.19-14Q74.19-12.85 73.99-12L73.99-12 74.99-12Q75.19-11.2 75.19-10L75.19-10Q75.19-8.85 74.99-8L74.99-8 76.49-8Q76.69-7.2 76.69-6L76.69-6Q76.69-4.85 76.49-4L76.49-4ZM72.99-16Q72.79-16.85 72.79-18L72.79-18Q72.79-19.2 72.99-20L72.99-20Q72.79-20.85 72.79-22L72.79-22Q72.79-23.2 72.99-24L72.99-24 65.99-24Q66.19-23.2 66.19-22L66.19-22Q66.19-20.85 65.99-20L65.99-20Q66.19-19.2 66.19-18L66.19-18Q66.19-16.85 65.99-16L65.99-16 72.99-16ZM98.19-26Q98.19-24.85 97.99-24L97.99-24 91.99-24Q92.19-23.2 92.19-22L92.19-22Q92.19-20.85 91.99-20L91.99-20Q92.19-19.2 92.19-18L92.19-18Q92.19-16.85 91.99-16L91.99-16Q92.19-15.2 92.19-14L92.19-14Q92.19-12.85 91.99-12L91.99-12Q92.19-11.2 92.19-10L92.19-10Q92.19-8.85 91.99-8L91.99-8Q92.19-7.2 92.19-6L92.19-6Q92.19-4.85 91.99-4L91.99-4Q92.19-3.2 92.19-2L92.19-2Q92.19-0.85 91.99 0L91.99 0 87.99 0Q87.79-0.85 87.79-2L87.79-2Q87.79-3.2 87.99-4L87.99-4Q87.79-4.85 87.79-6L87.79-6Q87.79-7.2 87.99-8L87.99-8Q87.79-8.85 87.79-10L87.79-10Q87.79-11.2 87.99-12L87.99-12Q87.79-12.85 87.79-14L87.79-14Q87.79-15.2 87.99-16L87.99-16Q87.79-16.85 87.79-18L87.79-18Q87.79-19.2 87.99-20L87.99-20Q87.79-20.85 87.79-22L87.79-22Q87.79-23.2 87.99-24L87.99-24 81.99-24Q81.79-24.85 81.79-26L81.79-26Q81.79-27.2 81.99-28L81.99-28 97.99-28Q98.19-27.2 98.19-26L98.19-26ZM117.99-24Q118.19-23.2 118.19-22L118.19-22Q118.19-20.85 117.99-20L117.99-20Q118.19-19.2 118.19-18L118.19-18Q118.19-16.85 117.99-16L117.99-16Q118.19-15.2 118.19-14L118.19-14Q118.19-12.85 117.99-12L117.99-12Q118.19-11.2 118.19-10L118.19-10Q118.19-8.85 117.99-8L117.99-8Q118.19-7.2 118.19-6L118.19-6Q118.19-4.85 117.99-4L117.99-4Q118.19-3.2 118.19-2L118.19-2Q118.19-0.85 117.99 0L117.99 0 113.99 0Q113.79-0.85 113.79-2L113.79-2Q113.79-3.2 113.99-4L113.99-4 111.49-4Q111.29-4.85 111.29-6L111.29-6Q111.29-7.2 111.49-8L111.49-8 109.99-8Q109.79-8.85 109.79-10L109.79-10Q109.79-11.2 109.99-12L109.99-12 107.99-12Q107.79-12.85 107.79-14L107.79-14Q107.79-15.2 107.99-16L107.99-16 105.99-16Q106.19-15.2 106.19-14L106.19-14Q106.19-12.85 105.99-12L105.99-12Q106.19-11.2 106.19-10L106.19-10Q106.19-8.85 105.99-8L105.99-8Q106.19-7.2 106.19-6L106.19-6Q106.19-4.85 105.99-4L105.99-4Q106.19-3.2 106.19-2L106.19-2Q106.19-0.85 105.99 0L105.99 0 101.99 0Q101.79-0.85 101.79-2L101.79-2Q101.79-3.2 101.99-4L101.99-4Q101.79-4.85 101.79-6L101.79-6Q101.79-7.2 101.99-8L101.99-8Q101.79-8.85 101.79-10L101.79-10Q101.79-11.2 101.99-12L101.99-12Q101.79-12.85 101.79-14L101.79-14Q101.79-15.2 101.99-16L101.99-16Q101.79-16.85 101.79-18L101.79-18Q101.79-19.2 101.99-20L101.99-20Q101.79-20.85 101.79-22L101.79-22Q101.79-23.2 101.99-24L101.99-24Q101.79-24.85 101.79-26L101.79-26Q101.79-27.2 101.99-28L101.99-28 106.99-28Q107.19-27.2 107.19-26L107.19-26Q107.19-24.85 106.99-24L106.99-24 108.49-24Q108.69-23.2 108.69-22L108.69-22Q108.69-20.85 108.49-20L108.49-20 109.99-20Q110.19-19.2 110.19-18L110.19-18Q110.19-16.85 109.99-16L109.99-16 111.99-16Q112.19-15.2 112.19-14L112.19-14Q112.19-12.85 111.99-12L111.99-12 113.99-12Q113.79-12.85 113.79-14L113.79-14Q113.79-15.2 113.99-16L113.99-16Q113.79-16.85 113.79-18L113.79-18Q113.79-19.2 113.99-20L113.99-20Q113.79-20.85 113.79-22L113.79-22Q113.79-23.2 113.99-24L113.99-24Q113.79-24.85 113.79-26L113.79-26Q113.79-27.2 113.99-28L113.99-28 117.99-28Q118.19-27.2 118.19-26L118.19-26Q118.19-24.85 117.99-24L117.99-24ZM137.99-16Q138.19-15.2 138.19-14L138.19-14Q138.19-12.85 137.99-12L137.99-12Q138.19-11.2 138.19-10L138.19-10Q138.19-8.85 137.99-8L137.99-8 136.49-8Q136.69-7.2 136.69-6L136.69-6Q136.69-4.85 136.49-4L136.49-4 133.99-4Q134.19-3.2 134.19-2L134.19-2Q134.19-0.85 133.99 0L133.99 0 125.99 0Q125.79-0.85 125.79-2L125.79-2Q125.79-3.2 125.99-4L125.99-4 123.49-4Q123.29-4.85 123.29-6L123.29-6Q123.29-7.2 123.49-8L123.49-8 121.99-8Q121.79-8.85 121.79-10L121.79-10Q121.79-11.2 121.99-12L121.99-12Q121.79-12.85 121.79-14L121.79-14Q121.79-15.2 121.99-16L121.99-16Q121.79-16.85 121.79-18L121.79-18Q121.79-19.2 121.99-20L121.99-20 123.49-20Q123.29-20.85 123.29-22L123.29-22Q123.29-23.2 123.49-24L123.49-24 125.99-24Q125.79-24.85 125.79-26L125.79-26Q125.79-27.2 125.99-28L125.99-28 133.99-28Q134.19-27.2 134.19-26L134.19-26Q134.19-24.85 133.99-24L133.99-24 136.49-24Q136.69-23.2 136.69-22L136.69-22Q136.69-20.85 136.49-20L136.49-20 137.99-20Q138.19-19.2 138.19-18L138.19-18Q138.19-16.85 137.99-16L137.99-16ZM133.99-8Q133.79-8.85 133.79-10L133.79-10Q133.79-11.2 133.99-12L133.99-12Q133.79-12.85 133.79-14L133.79-14Q133.79-15.2 133.99-16L133.99-16Q133.79-16.85 133.79-18L133.79-18Q133.79-19.2 133.99-20L133.99-20 132.49-20Q132.29-20.85 132.29-22L132.29-22Q132.29-23.2 132.49-24L132.49-24 127.49-24Q127.69-23.2 127.69-22L127.69-22Q127.69-20.85 127.49-20L127.49-20 125.99-20Q126.19-19.2 126.19-18L126.19-18Q126.19-16.85 125.99-16L125.99-16Q126.19-15.2 126.19-14L126.19-14Q126.19-12.85 125.99-12L125.99-12Q126.19-11.2 126.19-10L126.19-10Q126.19-8.85 125.99-8L125.99-8 127.49-8Q127.69-7.2 127.69-6L127.69-6Q127.69-4.85 127.49-4L127.49-4 132.49-4Q132.29-4.85 132.29-6L132.29-6Q132.29-7.2 132.49-8L132.49-8 133.99-8ZM158.18-26Q158.18-24.85 157.98-24L157.98-24 151.98-24Q152.18-23.2 152.18-22L152.18-22Q152.18-20.85 151.98-20L151.98-20Q152.18-19.2 152.18-18L152.18-18Q152.18-16.85 151.98-16L151.98-16Q152.18-15.2 152.18-14L152.18-14Q152.18-12.85 151.98-12L151.98-12Q152.18-11.2 152.18-10L152.18-10Q152.18-8.85 151.98-8L151.98-8Q152.18-7.2 152.18-6L152.18-6Q152.18-4.85 151.98-4L151.98-4Q152.18-3.2 152.18-2L152.18-2Q152.18-0.85 151.98 0L151.98 0 147.98 0Q147.78-0.85 147.78-2L147.78-2Q147.78-3.2 147.98-4L147.98-4Q147.78-4.85 147.78-6L147.78-6Q147.78-7.2 147.98-8L147.98-8Q147.78-8.85 147.78-10L147.78-10Q147.78-11.2 147.98-12L147.98-12Q147.78-12.85 147.78-14L147.78-14Q147.78-15.2 147.98-16L147.98-16Q147.78-16.85 147.78-18L147.78-18Q147.78-19.2 147.98-20L147.98-20Q147.78-20.85 147.78-22L147.78-22Q147.78-23.2 147.98-24L147.98-24 141.98-24Q141.78-24.85 141.78-26L141.78-26Q141.78-27.2 141.98-28L141.98-28 157.98-28Q158.18-27.2 158.18-26L158.18-26ZM175.98-12L167.98-12Q168.18-11.2 168.18-10L168.18-10Q168.18-8.85 167.98-8L167.98-8Q168.18-7.2 168.18-6L168.18-6Q168.18-4.85 167.98-4L167.98-4 175.98-4Q176.18-3.2 176.18-2L176.18-2Q176.18-0.85 175.98 0L175.98 0 163.98 0Q163.78-0.85 163.78-2L163.78-2Q163.78-3.2 163.98-4L163.98-4Q163.78-4.85 163.78-6L163.78-6Q163.78-7.2 163.98-8L163.98-8Q163.78-8.85 163.78-10L163.78-10Q163.78-11.2 163.98-12L163.98-12Q163.78-12.85 163.78-14L163.78-14Q163.78-15.2 163.98-16L163.98-16Q163.78-16.85 163.78-18L163.78-18Q163.78-19.2 163.98-20L163.98-20Q163.78-20.85 163.78-22L163.78-22Q163.78-23.2 163.98-24L163.98-24Q163.78-24.85 163.78-26L163.78-26Q163.78-27.2 163.98-28L163.98-28 175.98-28Q176.18-27.2 176.18-26L176.18-26Q176.18-24.85 175.98-24L175.98-24 167.98-24Q168.18-23.2 168.18-22L168.18-22Q168.18-20.85 167.98-20L167.98-20Q168.18-19.2 168.18-18L168.18-18Q168.18-16.85 167.98-16L167.98-16 175.98-16Q176.18-15.2 176.18-14L176.18-14Q176.18-12.85 175.98-12L175.98-12Z" opacity="1" transform="matrix(1,0,0,1,0,0)" fill="#000000" class="wordmark-text-0" data-fill-palette-color="primary" id="text-0"></path></svg></g></svg></g></svg></g></svg></g></svg></g></svg></g><path d="M182.985 97.978L182.985 35.512 6.808 35.512 6.808 211.688 182.985 211.688 182.985 149.222 179.446 149.222 179.446 208.149 10.348 208.149 10.348 39.051 179.446 39.051 179.446 97.978Z" fill="#000000" stroke="transparent" data-fill-palette-color="tertiary"></path></svg></g><defs></defs></svg><rect width="395.52" height="247.2" fill="none" stroke="none" visibility="hidden"></rect></g></svg></g></svg>